<svg width="2765" height="700" viewBox="0 0 2765 700" fill="none" xmlns="http://www.w3.org/2000/svg">
<path fill-rule="evenodd" clip-rule="evenodd" d="M115.208 73.52L0 92.533V346.472V353.528V645.493L115.208 638.579C230.417 632.529 460.833 620.43 691.25 626.48C866.048 631.069 1040.84 646.6 1215.64 662.132C1271.26 667.074 1326.88 672.016 1382.5 676.605C1612.92 694.753 1843.33 707.717 2073.75 694.753C2304.17 682.654 2534.58 645.493 2649.79 626.48L2765 607.467V353.528V346.472V54.5075L2649.79 61.4212C2534.58 67.4707 2304.17 79.57 2073.75 73.52C1898.95 68.931 1724.15 53.3996 1549.35 37.8683C1493.74 32.9265 1438.12 27.9847 1382.5 23.3954C1152.08 5.24681 921.667 -7.71659 691.25 5.24671C460.833 17.3459 230.417 54.5075 115.208 73.52Z" fill="#2E8544" fill-opacity="0.85"/>
</svg>
