<svg width="1440" height="332" viewBox="0 0 1440 332" fill="none" xmlns="http://www.w3.org/2000/svg">
<g filter="url(#filter0_d_1_37)">
<path fill-rule="evenodd" clip-rule="evenodd" d="M60 55.711L0 65.4634V195.717V199.336V349.095L60 345.548C120 342.445 240 336.239 360 339.342C451.034 341.696 542.068 349.663 633.102 357.629C662.068 360.164 691.034 362.699 720 365.053C840 374.362 960 381.012 1080 374.362C1200 368.156 1320 349.095 1380 339.342L1440 329.59V199.336V195.717V45.9587L1380 49.505L1380 49.5051C1320 52.6081 1200 58.814 1080 55.711C988.965 53.357 897.931 45.3904 806.896 37.4239C777.931 34.8891 748.965 32.3543 720 30.0003C600 20.6912 480 14.0419 360 20.6912C240 26.8973 120 45.9587 60 55.711Z" fill="#2E8544"/>
</g>
<defs>
<filter id="filter0_d_1_37" x="-9" y="0" width="1458" height="377.053" filterUnits="userSpaceOnUse" color-interpolation-filters="sRGB">
<feFlood flood-opacity="0" result="BackgroundImageFix"/>
<feColorMatrix in="SourceAlpha" type="matrix" values="0 0 0 0 0 0 0 0 0 0 0 0 0 0 0 0 0 0 127 0" result="hardAlpha"/>
<feOffset dy="-9"/>
<feGaussianBlur stdDeviation="4.5"/>
<feComposite in2="hardAlpha" operator="out"/>
<feColorMatrix type="matrix" values="0 0 0 0 0 0 0 0 0 0 0 0 0 0 0 0 0 0 0.08 0"/>
<feBlend mode="normal" in2="BackgroundImageFix" result="effect1_dropShadow_1_37"/>
<feBlend mode="normal" in="SourceGraphic" in2="effect1_dropShadow_1_37" result="shape"/>
</filter>
</defs>
</svg>
