<svg width="1415" height="700" viewBox="0 0 1415 700" fill="none" xmlns="http://www.w3.org/2000/svg">
<path fill-rule="evenodd" clip-rule="evenodd" d="M35 73.52L-25 92.533V346.472V353.528V645.493L35 638.579C95 632.529 215 620.43 335 626.48C426.034 631.069 517.067 646.6 608.101 662.132C637.067 667.074 666.034 672.016 695 676.605C815 694.753 935 707.717 1055 694.753C1175 682.654 1295 645.493 1355 626.48L1415 607.467V353.528V346.472V54.5075L1355 61.4212C1295 67.4707 1175 79.57 1055 73.52C963.965 68.931 872.931 53.3996 781.896 37.8683C752.931 32.9265 723.965 27.9847 695 23.3954C575 5.24681 455 -7.71659 335 5.24671C215 17.3459 95 54.5075 35 73.52Z" fill="#2E8544" fill-opacity="0.85"/>
</svg>
